<svg width="20" height="21" viewBox="0 0 20 21" fill="none" xmlns="http://www.w3.org/2000/svg">
<path fill-rule="evenodd" clip-rule="evenodd" d="M13.24 1.87095L14.2072 0.259918C14.2252 0.219839 14.2264 0.175097 14.2106 0.134255C14.1948 0.0934129 14.1631 0.0593396 14.1216 0.0385564C14.08 0.0177731 14.0316 0.0117399 13.9855 0.0216114C13.9394 0.0314828 13.8989 0.0565656 13.8718 0.092059L12.8945 1.71947C12.0391 1.37456 11.1143 1.19744 10.1795 1.19952C9.20784 1.19952 8.28982 1.38478 7.46907 1.71742L6.48955 0.092059C6.4776 0.0718153 6.4614 0.0539275 6.44189 0.039419C6.42238 0.0249106 6.39993 0.0140662 6.37584 0.00750661C6.35174 0.000946976 6.32647 -0.00119921 6.30147 0.00119086C6.27647 0.00358093 6.25222 0.0104603 6.23013 0.0214354C6.2078 0.032169 6.18804 0.0468863 6.17202 0.0647198C6.156 0.0825534 6.14404 0.103142 6.13685 0.125273C6.12966 0.147403 6.12738 0.170627 6.13015 0.193576C6.13292 0.216525 6.14068 0.238734 6.15297 0.258894L7.12132 1.86788C5.22041 2.76245 3.93451 4.46458 3.93562 6.41952L16.4212 6.4185C16.4212 4.46355 15.1398 2.76552 13.24 1.87095ZM7.33825 4.35813C7.26967 4.35806 7.20178 4.34563 7.13846 4.32155C7.07513 4.29747 7.0176 4.2622 6.96917 4.21777C6.92073 4.17334 6.88233 4.12061 6.85615 4.06259C6.82998 4.00457 6.81654 3.9424 6.81661 3.87963C6.81669 3.81686 6.83027 3.75472 6.85658 3.69675C6.88289 3.63878 6.92141 3.58613 6.96996 3.54179C7.0185 3.49745 7.07611 3.4623 7.13949 3.43834C7.20287 3.41438 7.27079 3.40209 7.33936 3.40215C7.47801 3.40215 7.61097 3.45257 7.709 3.5423C7.80704 3.63204 7.86211 3.75375 7.86211 3.88065C7.86211 4.00756 7.80704 4.12927 7.709 4.219C7.61097 4.30874 7.47801 4.35915 7.33936 4.35915L7.33825 4.35813ZM16.3787 6.85759L16.381 15.0581C16.381 15.5504 16.088 15.9762 15.6564 16.2116C15.4288 16.338 15.1678 16.4053 14.9016 16.4061L13.8908 16.4071V19.2055C13.8906 19.3935 13.8447 19.5792 13.7563 19.749C13.6679 19.9187 13.5393 20.0683 13.3799 20.187C13.2205 20.3056 13.0342 20.3902 12.8345 20.4346C12.6349 20.479 12.427 20.4822 12.2258 20.4439C11.914 20.3856 11.6337 20.2307 11.4321 20.0053C11.2304 19.7799 11.1198 19.4978 11.1188 19.2065V16.4071H9.24586V19.2065C9.24527 19.5421 9.09913 19.8638 8.83955 20.1008C8.57997 20.3378 8.22821 20.4708 7.86155 20.4705C7.49508 20.4703 7.14366 20.3371 6.88421 20.1002C6.62476 19.8633 6.47843 19.5419 6.47725 19.2065V16.4071H5.46977C4.88719 16.4071 4.38849 16.1001 4.14808 15.6538C4.04569 15.4695 3.9917 15.2659 3.99041 15.0591L3.98818 6.86066L16.3787 6.85759ZM2.06379 6.62218C2.82862 6.62218 3.45033 7.18819 3.45033 7.88521V13.1769C3.44995 13.4058 3.38184 13.6303 3.25323 13.8266C3.12462 14.0229 2.94032 14.1837 2.7199 14.2918C2.49949 14.3999 2.25119 14.4514 2.00139 14.4407C1.7516 14.43 1.50963 14.3576 1.30119 14.2311C1.10991 14.1165 0.952803 13.9602 0.844065 13.7761C0.735328 13.5921 0.678381 13.3861 0.678364 13.1769L0.677246 7.88419C0.677246 7.18819 1.29784 6.62218 2.06379 6.62218ZM18.2998 6.62115C19.0646 6.62115 19.6863 7.18614 19.6863 7.88419V13.1748C19.6863 13.8739 19.0657 14.4389 18.3009 14.4389C17.5349 14.4389 16.9143 13.8739 16.9143 13.1748V7.88317C16.9143 7.18512 17.5338 6.61911 18.2987 6.62013L18.2998 6.62115ZM13.022 3.40318C13.0925 3.40019 13.163 3.41032 13.2291 3.43297C13.2952 3.45562 13.3556 3.4903 13.4067 3.53494C13.4578 3.57957 13.4984 3.63322 13.5262 3.69264C13.554 3.75206 13.5683 3.81602 13.5683 3.88065C13.5683 3.94529 13.554 4.00925 13.5262 4.06867C13.4984 4.12809 13.4578 4.18174 13.4067 4.22637C13.3556 4.27101 13.2952 4.30569 13.2291 4.32834C13.163 4.35099 13.0925 4.36112 13.022 4.35813C12.9514 4.36112 12.881 4.35099 12.8148 4.32834C12.7487 4.30569 12.6883 4.27101 12.6372 4.22637C12.5861 4.18174 12.5455 4.12809 12.5177 4.06867C12.4899 4.00925 12.4756 3.94529 12.4756 3.88065C12.4756 3.81602 12.4899 3.75206 12.5177 3.69264C12.5455 3.63322 12.5861 3.57957 12.6372 3.53494C12.6883 3.4903 12.7487 3.45562 12.8148 3.43297C12.881 3.41032 12.9514 3.40019 13.022 3.40318Z" fill="white"/>
</svg>
