<svg width="24" height="24" viewBox="0 0 24 24" fill="none" xmlns="http://www.w3.org/2000/svg">
<path d="M15.975 4.5C15.9153 4.5 15.8581 4.52371 15.8159 4.5659C15.7737 4.6081 15.75 4.66533 15.75 4.725V8.84775L14.8155 8.3025C14.7578 8.26839 14.692 8.25039 14.625 8.25039C14.558 8.25039 14.4922 8.26839 14.4345 8.3025L12.189 9.612C12.1316 9.64515 12.0839 9.69281 12.0507 9.7502C12.0176 9.8076 12.0001 9.87271 12 9.939V12.561C12 12.696 12.072 12.8205 12.189 12.888L14.4345 14.1975C14.4922 14.2316 14.558 14.2496 14.625 14.2496C14.692 14.2496 14.7578 14.2316 14.8155 14.1975L17.061 12.888C17.1184 12.8549 17.1661 12.8072 17.1993 12.7498C17.2324 12.6924 17.2499 12.6273 17.25 12.561V5.4225C17.2498 5.35709 17.2326 5.29286 17.1999 5.23617C17.1673 5.17948 17.1205 5.13228 17.064 5.09925L16.0867 4.53075C16.0531 4.51088 16.0148 4.50027 15.9758 4.5H15.975ZM8.625 8.2515C8.55812 8.25142 8.4924 8.26901 8.4345 8.3025L6.189 9.612C6.13159 9.64515 6.0839 9.69281 6.05073 9.7502C6.01756 9.8076 6.00006 9.87271 6 9.939V12.561C6 12.696 6.072 12.8205 6.189 12.888L8.4345 14.1975C8.55225 14.265 8.697 14.265 8.8155 14.1975L11.061 12.888C11.1184 12.8549 11.1661 12.8072 11.1993 12.7498C11.2324 12.6924 11.2499 12.6273 11.25 12.561V9.939C11.2501 9.87268 11.2327 9.80751 11.1995 9.75009C11.1663 9.69267 11.1185 9.64503 11.061 9.612L8.8155 8.3025C8.7576 8.26901 8.69188 8.25142 8.625 8.2515ZM20.625 8.2515C20.5581 8.25116 20.4923 8.26877 20.4345 8.3025L18.189 9.612C18.1316 9.64515 18.0839 9.69281 18.0507 9.7502C18.0176 9.8076 18.0001 9.87271 18 9.939V12.561C18 12.696 18.072 12.8205 18.189 12.888L20.367 14.2042C20.4246 14.2392 20.4905 14.2579 20.5578 14.2584C20.6252 14.259 20.6914 14.2413 20.7495 14.2073L21.8205 13.5848C21.8457 13.5699 21.8666 13.5487 21.8811 13.5234C21.8956 13.498 21.9032 13.4692 21.9032 13.44C21.9032 13.4108 21.8956 13.382 21.8811 13.3566C21.8666 13.3313 21.8457 13.3101 21.8205 13.2952L19.5 11.928V10.5825L20.625 9.92775L21.75 10.5825V11.52C21.75 11.6452 21.855 11.6647 21.9255 11.6227C22.3046 11.4014 22.6841 11.1806 23.064 10.9605C23.1205 10.9275 23.1674 10.8803 23.2 10.8236C23.2327 10.7669 23.2499 10.7027 23.25 10.6372V9.93975C23.2501 9.87343 23.2327 9.80826 23.1995 9.75084C23.1663 9.69341 23.1185 9.64578 23.061 9.61275L20.8155 8.30325C20.7577 8.26963 20.6919 8.25202 20.625 8.25225V8.2515ZM2.625 8.253C2.55808 8.25266 2.4923 8.27027 2.4345 8.304L0.189 9.612C0.131522 9.64545 0.0838214 9.69338 0.0506576 9.75103C0.0174939 9.80867 2.69488e-05 9.874 0 9.9405V13.2877C0 13.4512 0.177 13.5525 0.318 13.4708L1.314 12.891C1.37057 12.8579 1.41749 12.8106 1.45012 12.7538C1.48275 12.6969 1.49994 12.6325 1.5 12.567V10.5847L2.625 9.9285L3.75 10.5847V12.567C3.75011 12.6324 3.76734 12.6967 3.79997 12.7534C3.8326 12.8101 3.87949 12.8573 3.936 12.8903L4.932 13.4708C4.96416 13.4895 5.0007 13.4994 5.03792 13.4995C5.07514 13.4996 5.11173 13.4899 5.14399 13.4713C5.17625 13.4528 5.20304 13.426 5.22166 13.3938C5.24027 13.3615 5.25005 13.325 5.25 13.2877V9.9405C5.24997 9.874 5.23251 9.80867 5.19934 9.75103C5.16618 9.69338 5.11848 9.64545 5.061 9.612L2.8155 8.304C2.7577 8.27027 2.69192 8.25266 2.625 8.253ZM14.625 9.927L15.75 10.5833V11.9167L14.625 12.573L13.5 11.9167V10.5825L14.625 9.92625V9.927ZM20.625 10.503L19.9822 10.878V11.6265L20.625 12L21.2678 11.6265V10.878L20.625 10.503ZM11.5545 13.4985C11.4766 13.4981 11.3999 13.5177 11.3318 13.5555L9.22275 14.775C9.15488 14.8135 9.09847 14.8693 9.05933 14.9368C9.02018 15.0043 8.9997 15.081 9 15.159V17.5935C9 17.7503 9.08775 17.898 9.22275 17.9775L9.77775 18.294C10.044 18.4253 10.1423 18.4252 10.263 18.4252C10.6605 18.4252 10.887 18.1875 10.887 17.7675V15.3622C10.8872 15.354 10.8858 15.3459 10.8828 15.3383C10.8798 15.3306 10.8753 15.3237 10.8695 15.3178C10.8638 15.3119 10.8569 15.3073 10.8494 15.3041C10.8418 15.3009 10.8337 15.2992 10.8255 15.2993H10.5585C10.5418 15.2993 10.5258 15.3059 10.514 15.3177C10.5021 15.3295 10.4955 15.3455 10.4955 15.3622V17.7675C10.4955 17.9498 10.3027 18.1373 9.9885 17.9805L9.411 17.6475C9.40158 17.6416 9.39377 17.6334 9.38828 17.6237C9.38278 17.614 9.37977 17.6031 9.3795 17.592V15.1575C9.3795 15.1357 9.39 15.1102 9.41175 15.099L11.5208 13.8832C11.5309 13.8777 11.5422 13.8747 11.5537 13.8747C11.5653 13.8747 11.5766 13.8777 11.5868 13.8832L13.698 15.0983C13.7197 15.1103 13.7302 15.132 13.7302 15.1575V17.592C13.7302 17.6037 13.7272 17.6151 13.7216 17.6254C13.7159 17.6356 13.7078 17.6442 13.698 17.6505L11.5868 18.8707C11.5766 18.8763 11.5653 18.8793 11.5537 18.8793C11.5422 18.8793 11.5309 18.8763 11.5208 18.8707L10.9822 18.5497C10.9672 18.5422 10.9448 18.5385 10.9305 18.546C10.8318 18.6093 10.7248 18.6585 10.6125 18.6923C10.5757 18.7035 10.5262 18.726 10.632 18.7845L11.3318 19.2007C11.4002 19.238 11.4766 19.2581 11.5545 19.2593C11.6321 19.26 11.7083 19.2387 11.7743 19.1978L13.884 17.9775C13.9519 17.939 14.0083 17.8832 14.0474 17.8157C14.0866 17.7482 14.107 17.6715 14.1068 17.5935V15.159C14.1058 15.0812 14.0848 15.0051 14.0457 14.9378C14.0067 14.8705 13.951 14.8145 13.884 14.775L11.7743 13.5563C11.7073 13.5183 11.6315 13.4986 11.5545 13.4993V13.4985ZM14.8447 14.622C14.7916 14.6221 14.7389 14.6327 14.6898 14.6531C14.6407 14.6736 14.5961 14.7035 14.5586 14.7412C14.4828 14.8172 14.4403 14.9203 14.4405 15.0278C14.4407 15.1352 14.4836 15.2381 14.5597 15.3139C14.6357 15.3897 14.7388 15.4322 14.8463 15.432C14.9537 15.4318 15.0566 15.3889 15.1324 15.3128C15.2082 15.2368 15.2507 15.1337 15.2505 15.0262C15.2503 14.9188 15.2074 14.8159 15.1313 14.7401C15.0553 14.6643 14.9522 14.6218 14.8447 14.622ZM14.8403 14.6865C15.0308 14.6865 15.1852 14.8365 15.1852 15.0262C15.1839 15.1173 15.1471 15.2043 15.0827 15.2687C15.0183 15.3331 14.9313 15.3699 14.8403 15.3713C14.7497 15.3703 14.6632 15.3334 14.5998 15.2687C14.5364 15.204 14.5012 15.1168 14.502 15.0262C14.5017 14.9817 14.5102 14.9375 14.5271 14.8962C14.544 14.855 14.5689 14.8175 14.6003 14.7859C14.6318 14.7543 14.6692 14.7292 14.7103 14.7122C14.7515 14.6951 14.7957 14.6864 14.8403 14.6865ZM14.6925 14.7968V15.252H14.7787V15.0705H14.8597C14.8927 15.0705 14.9003 15.084 14.9078 15.1095C14.9078 15.1132 14.9212 15.2317 14.925 15.2535H15.0187C15.0068 15.214 14.9995 15.1732 14.997 15.132C14.9865 15.0735 14.9835 15.033 14.9213 15.0292C14.9543 15.018 15.009 15.0007 15.009 14.9167C15.009 14.796 14.904 14.7968 14.8492 14.7968H14.6925ZM14.7787 14.8695H14.8522C14.8747 14.8695 14.9183 14.8695 14.9183 14.931C14.9183 14.9565 14.907 14.9985 14.8478 14.997H14.7787V14.8695ZM12.12 15.2415C11.5177 15.2415 11.16 15.4988 11.16 15.9218C11.16 16.3853 11.5185 16.509 12.0953 16.5668C12.7853 16.6365 12.8392 16.7355 12.8392 16.8705C12.8392 17.1075 12.6487 17.2057 12.2032 17.2057C11.6445 17.2057 11.5223 17.0677 11.4818 16.7902C11.478 16.7602 11.4518 16.7385 11.4188 16.7385H11.1443C11.136 16.7385 11.1279 16.7401 11.1204 16.7433C11.1128 16.7465 11.106 16.7512 11.1002 16.757C11.0945 16.7629 11.09 16.7699 11.087 16.7775C11.084 16.7851 11.0826 16.7933 11.0828 16.8015C11.0828 17.1555 11.2763 17.5792 12.1995 17.5792C12.8768 17.5792 13.26 17.3168 13.26 16.8563C13.26 16.4003 12.9525 16.2787 12.303 16.191C11.646 16.1032 11.5807 16.059 11.5807 15.9053C11.5807 15.7778 11.6347 15.6105 12.1207 15.6105C12.5542 15.6105 12.7162 15.7057 12.7822 15.9975C12.7897 16.0275 12.81 16.0447 12.8392 16.0447H13.113C13.131 16.0447 13.1467 16.0372 13.1572 16.0267C13.1685 16.0125 13.1752 15.9982 13.1722 15.9802C13.1287 15.4762 12.7957 15.2415 12.12 15.2415Z" fill="#F8F8F8"/>
</svg>
