<svg width="24" height="24" viewBox="0 0 24 24" fill="none" xmlns="http://www.w3.org/2000/svg">
<g clip-path="url(#clip0_243_3276)">
<path d="M24 15.5514C23.6507 15.6835 23.2651 15.6832 22.916 15.5506C22.5669 15.4179 22.2785 15.1621 22.105 14.8314L18.655 10.0604L18.155 9.3934L14.152 14.8374C13.989 15.1543 13.7162 15.4009 13.3845 15.5312C13.0529 15.6615 12.6851 15.6665 12.35 15.5454L17.508 8.6254L12.71 2.3744C13.055 2.25008 13.4323 2.24843 13.7784 2.36973C14.1244 2.49104 14.4181 2.72789 14.61 3.0404L18.186 7.8704L21.782 3.0604C21.9463 2.74919 22.2192 2.50919 22.5488 2.38603C22.8785 2.26287 23.2419 2.26514 23.57 2.3924L21.708 4.8634L19.186 8.1464C19.116 8.20888 19.0599 8.28545 19.0216 8.3711C18.9832 8.45675 18.9633 8.54955 18.9633 8.6434C18.9633 8.73726 18.9832 8.83005 19.0216 8.9157C19.0599 9.00135 19.116 9.07793 19.186 9.1404L23.99 15.5524L24 15.5514ZM0.002012 8.5394L0.422012 6.4644C1.57601 2.3614 6.28001 0.654402 9.51601 3.1944C11.411 4.6834 11.884 6.7914 11.791 9.1674H1.11601C0.943012 13.4104 4.00501 15.9724 7.92001 14.6634C8.55467 14.435 9.12275 14.0526 9.57337 13.5507C10.024 13.0488 10.3431 12.4429 10.502 11.7874C10.709 11.1214 11.05 11.0074 11.676 11.1994C11.5717 12.0118 11.2845 12.7899 10.8361 13.4753C10.3876 14.1607 9.78963 14.7355 9.08701 15.1564C7.92643 15.7912 6.59484 16.0428 5.28264 15.8753C3.97043 15.7077 2.74481 15.1295 1.78101 14.2234C0.828041 13.1508 0.252088 11.7959 0.141012 10.3654C0.141012 10.1304 0.061012 9.9104 0.007012 9.6994C0.00214403 9.31309 -0.000189357 8.92675 1.19963e-05 8.5404L0.002012 8.5394ZM1.12901 8.2534H10.783C10.723 5.1774 8.78201 2.9954 6.19301 2.9754C3.31101 2.9354 1.24901 5.0694 1.12201 8.2394L1.12901 8.2534Z" fill="white"/>
</g>
<defs>
<clipPath id="clip0_243_3276">
<rect width="24" height="24" fill="white"/>
</clipPath>
</defs>
</svg>
