<svg width="24" height="24" viewBox="0 0 24 24" fill="none" xmlns="http://www.w3.org/2000/svg">
<path d="M11.103 10.438C10.7971 10.6146 10.5505 10.878 10.3942 11.1948C10.238 11.5116 10.1793 11.8676 10.2254 12.2178C10.2715 12.568 10.4204 12.8966 10.6532 13.1622C10.8861 13.4278 11.1925 13.6183 11.5337 13.7098C11.8749 13.8012 12.2355 13.7895 12.57 13.676C12.9045 13.5625 13.1978 13.3523 13.4128 13.0721C13.6279 12.7919 13.7551 12.4543 13.7782 12.1018C13.8014 11.7493 13.7195 11.3979 13.543 11.092C13.4257 10.8888 13.2696 10.7107 13.0835 10.5679C12.8974 10.4251 12.685 10.3203 12.4585 10.2596C12.2319 10.1988 11.9956 10.1833 11.763 10.2139C11.5304 10.2446 11.3061 10.3207 11.103 10.438ZM19.108 12.376C18.9907 12.242 18.867 12.1077 18.737 11.973C18.8277 11.877 18.9157 11.7813 19.001 11.686C20.606 9.882 21.284 8.072 20.656 6.985C20.054 5.942 18.263 5.631 16.02 6.067C15.7993 6.11033 15.5797 6.159 15.361 6.213C15.319 6.069 15.2747 5.92567 15.228 5.783C14.467 3.49 13.238 1.999 11.982 2C10.778 2 9.61399 3.397 8.87099 5.558C8.79766 5.77133 8.72999 5.986 8.66799 6.202C8.52199 6.166 8.37532 6.13267 8.22799 6.102C5.86199 5.617 3.95699 5.937 3.32999 7.026C2.72899 8.069 3.35699 9.776 4.85799 11.498C5.00732 11.668 5.16066 11.8347 5.31799 11.998C5.13199 12.188 4.95699 12.379 4.79299 12.569C3.32799 14.267 2.73599 15.945 3.33599 16.984C3.95599 18.058 5.83399 18.409 8.12099 17.959C8.30632 17.9223 8.49066 17.881 8.67399 17.835C8.74066 18.069 8.81432 18.3013 8.89499 18.532C9.63499 20.649 10.792 22 11.992 22C13.232 22 14.474 20.547 15.227 18.341C15.287 18.167 15.342 17.986 15.396 17.8C15.6327 17.8587 15.871 17.9107 16.111 17.956C18.314 18.373 20.063 18.046 20.662 17.006C21.281 15.931 20.642 14.129 19.108 12.376ZM4.06999 7.452C4.45599 6.782 6.01299 6.52 8.05599 6.94C8.18666 6.96667 8.31966 6.99667 8.45499 7.03C8.25528 7.91236 8.11431 8.80699 8.03299 9.708C7.29624 10.2261 6.59378 10.7912 5.92999 11.4C5.78399 11.2487 5.64166 11.0937 5.50299 10.935C4.21599 9.461 3.70799 8.081 4.06999 7.452ZM7.95699 13.18C7.44699 12.793 6.97199 12.397 6.54099 11.999C6.97099 11.603 7.44599 11.209 7.95599 10.823C7.93732 11.2157 7.92832 11.6087 7.92899 12.002C7.92899 12.3953 7.93832 12.788 7.95699 13.18ZM7.95699 17.12C7.09021 17.313 6.1953 17.3449 5.31699 17.214C5.0762 17.1952 4.84184 17.1272 4.62838 17.0141C4.41493 16.9011 4.22692 16.7456 4.07599 16.557C3.71099 15.927 4.18699 14.579 5.43999 13.127C5.59732 12.945 5.75999 12.7677 5.92799 12.595C6.59208 13.2075 7.29595 13.7754 8.03499 14.295C8.11712 15.2074 8.25943 16.1134 8.46099 17.007C8.29432 17.049 8.12599 17.087 7.95599 17.121L7.95699 17.12ZM15.057 9.081C14.7217 8.86967 14.3823 8.66533 14.039 8.468C13.7003 8.27333 13.358 8.08567 13.012 7.905C13.5808 7.66475 14.1612 7.45283 14.751 7.27C14.8834 7.86814 14.9855 8.47257 15.057 9.081ZM9.67999 5.835C10.316 3.985 11.258 2.855 11.984 2.855C12.757 2.854 13.761 4.073 14.418 6.052C14.4607 6.18133 14.5007 6.31133 14.538 6.442C13.6755 6.70929 12.8317 7.03333 12.012 7.412C11.195 7.02869 10.3531 6.70095 9.49199 6.431C9.54999 6.231 9.61266 6.03233 9.67999 5.835ZM9.27999 7.259C9.86708 7.44378 10.4445 7.65806 11.01 7.901C10.3087 8.26233 9.62599 8.656 8.96199 9.082C9.04199 8.444 9.14899 7.833 9.27999 7.259ZM8.96299 14.919C9.29432 15.1317 9.63066 15.336 9.97199 15.532C10.32 15.732 10.6723 15.924 11.029 16.108C10.4594 16.3594 9.87732 16.5813 9.28499 16.773C9.14736 16.161 9.0399 15.5426 8.96299 14.92V14.919ZM14.419 18.065C14.1529 18.912 13.7333 19.7029 13.181 20.398C13.0446 20.5973 12.8688 20.7665 12.6645 20.8951C12.4602 21.0238 12.2316 21.1092 11.993 21.146C11.264 21.146 10.335 20.061 9.70299 18.25C9.62832 18.036 9.55966 17.82 9.49699 17.602C10.3622 17.3229 11.2075 16.9855 12.027 16.592C12.8536 16.9737 13.7045 17.3008 14.574 17.571C14.526 17.737 14.4743 17.9017 14.419 18.065ZM14.781 16.741C14.1835 16.5544 13.5955 16.3388 13.019 16.095C13.3583 15.917 13.7 15.7287 14.044 15.53C14.3973 15.326 14.7413 15.117 15.076 14.903C15.0092 15.5203 14.9107 16.1338 14.781 16.741ZM15.228 11.998C15.228 12.6053 15.209 13.212 15.171 13.818C14.678 14.152 14.158 14.478 13.617 14.79C13.077 15.101 12.544 15.387 12.02 15.646C11.4687 15.382 10.928 15.0973 10.398 14.792C9.87132 14.4887 9.35666 14.1657 8.85399 13.823C8.80732 13.2163 8.78399 12.609 8.78399 12.001C8.78399 11.3937 8.80666 10.7867 8.85199 10.18C9.85725 9.49368 10.9129 8.88428 12.01 8.357C12.554 8.62167 13.0883 8.90533 13.613 9.208C14.1397 9.51067 14.6563 9.83033 15.163 10.167C15.2063 10.7763 15.228 11.3867 15.228 11.998ZM16.184 6.905C18.106 6.532 19.554 6.783 19.917 7.412C20.304 8.082 19.75 9.56 18.363 11.118C18.2863 11.204 18.207 11.2903 18.125 11.377C17.4495 10.7663 16.7331 10.2024 15.981 9.689C15.9052 8.79795 15.7699 7.91298 15.576 7.04C15.7827 6.98933 15.9853 6.94433 16.184 6.905ZM16.054 10.79C16.5615 11.1604 17.0495 11.557 17.516 11.978C17.0517 12.4058 16.5654 12.809 16.059 13.186C16.0743 12.79 16.082 12.394 16.082 11.998C16.082 11.5953 16.0727 11.1927 16.054 10.79ZM19.923 16.579C19.559 17.21 18.155 17.473 16.27 17.117C16.054 17.0763 15.8327 17.0277 15.606 16.971C15.7953 16.0867 15.9246 15.1907 15.993 14.289C16.7438 13.767 17.4578 13.194 18.13 12.574C18.248 12.696 18.36 12.8173 18.466 12.938C19.067 13.5916 19.5426 14.3502 19.869 15.176C19.9734 15.3937 20.0321 15.6306 20.0414 15.8719C20.0507 16.1132 20.0104 16.3539 19.923 16.579Z" fill="white"/>
</svg>
