<!-- <svg width="29" height="30" viewBox="0 0 29 30" fill="none" xmlns="http://www.w3.org/2000/svg">
<ellipse cx="14.5" cy="15" rx="14.5" ry="15" fill="black"/>
<path d="M12.0101 8.69363H14.184V17.3084C14.1975 18.7914 13.7256 19.9811 12.7685 20.8777C11.8113 21.7674 10.5103 22.2022 8.86552 22.182C7.21402 22.182 5.9299 21.7472 5.01314 20.8777C4.09639 20.0013 3.63802 18.7981 3.63802 17.2679V8.69363H5.82204V17.1163C5.82204 18.2083 6.07482 19.0172 6.58038 19.543C7.09269 20.062 7.87799 20.3215 8.9363 20.3215C10.9855 20.3215 12.0101 19.2464 12.0101 17.0961V8.69363Z" fill="url(#paint0_linear_19_98)"/>
<path d="M17.9333 16.6815V22H15.7594V8.69363H19.5106C21.2228 8.69363 22.4934 9.01382 23.3225 9.6542C24.1517 10.2946 24.5662 11.2686 24.5662 12.5763C24.5662 14.2278 23.7034 15.4075 21.9778 16.1153L25.7391 22H23.2619L20.0768 16.6815H17.9333ZM17.9333 10.5339V14.8817H19.4398C20.4375 14.8817 21.1655 14.6997 21.6239 14.3357C22.089 13.9649 22.3215 13.4055 22.3215 12.6572C22.3215 11.909 22.0789 11.3697 21.5935 11.0394C21.1149 10.7024 20.3734 10.5339 19.3691 10.5339H17.9333Z" fill="url(#paint1_linear_19_98)"/>
<defs>
<linearGradient id="paint0_linear_19_98" x1="9" y1="2" x2="9" y2="23" gradientUnits="userSpaceOnUse">
<stop stop-color="#0067F6"/>
<stop offset="1" stop-color="#00A2B6"/>
</linearGradient>
<linearGradient id="paint1_linear_19_98" x1="20.5" y1="2" x2="20.5" y2="23" gradientUnits="userSpaceOnUse">
<stop stop-color="#0067F6"/>
<stop offset="1" stop-color="#00A2B6"/>
</linearGradient>
</defs>
</svg> -->


<svg width="16" height="16" viewBox="0 0 16 16" fill="none" xmlns="http://www.w3.org/2000/svg">
<circle cx="8" cy="8" r="8" fill="black"/>
<path d="M2.3853 5.90909H3.90909L5.2017 9.06108H5.26136L6.55398 5.90909H8.07777V11H6.87962V7.87287H6.83736L5.61435 10.9677H4.84872L3.62571 7.85547H3.58345V11H2.3853V5.90909ZM13.178 5.90909V11H12.134L10.108 8.06179H10.0757V11H8.84526V5.90909H9.90421L11.9078 8.84233H11.95V5.90909H13.178Z" fill="url(#paint0_linear_836_43009)"/>
<defs>
<linearGradient id="paint0_linear_836_43009" x1="2" y1="8" x2="14" y2="8" gradientUnits="userSpaceOnUse">
<stop stop-color="#2CC1FF"/>
<stop offset="0.508874" stop-color="#25ABC8"/>
<stop offset="0.595012" stop-color="white"/>
</linearGradient>
</defs>
</svg>
