<svg width="28" height="30" viewBox="0 0 28 30" fill="none" xmlns="http://www.w3.org/2000/svg">
<circle cx="14" cy="15.5454" r="14" fill="#121120"/>
<path d="M5.212 20H3.7V10.62H11.162V11.978H5.212V14.89H10.952V16.234H5.212V20ZM13.7979 20H12.2859V10.62H14.3439L17.0459 16.052L17.8999 17.998H18.0119L18.8379 16.052L21.5119 10.62H23.5699V20H22.0579V14.246L22.1139 12.888H22.0019L21.4279 14.246L18.8379 19.44H17.0179L14.4279 14.246L13.8539 12.888H13.7419L13.7979 14.246V20Z" fill="white"/>
<path d="M5.212 20H3.7V10.62H11.162V11.978H5.212V14.89H10.952V16.234H5.212V20ZM13.7979 20H12.2859V10.62H14.3439L17.0459 16.052L17.8999 17.998H18.0119L18.8379 16.052L21.5119 10.62H23.5699V20H22.0579V14.246L22.1139 12.888H22.0019L21.4279 14.246L18.8379 19.44H17.0179L14.4279 14.246L13.8539 12.888H13.7419L13.7979 14.246V20Z" fill="url(#paint0_linear_409_3376)"/>
<defs>
<linearGradient id="paint0_linear_409_3376" x1="14" y1="0" x2="14" y2="19" gradientUnits="userSpaceOnUse">
<stop stop-color="#0067F6"/>
<stop offset="1" stop-color="#00A2B6"/>
</linearGradient>
</defs>
</svg>
