<svg width="1440" height="688" viewBox="0 0 1440 688" fill="none" xmlns="http://www.w3.org/2000/svg">
<g filter="url(#filter0_f_41_8172)">
<path d="M1328.74 478.236C1373.87 447.623 1392.32 414.102 1382.38 380.79C1372.44 347.479 1334.43 315.457 1271.89 287.703C1209.34 259.948 1124.29 237.36 1024.64 222.04C924.985 206.719 813.966 199.163 701.899 200.074C589.832 200.984 480.355 210.331 383.644 227.247C286.934 244.162 206.128 268.097 148.739 296.826C91.3494 325.555 59.2388 358.146 55.3917 391.57C51.5446 424.993 76.0858 458.164 126.734 488H719.5L1328.74 478.236Z" fill="url(#paint0_radial_41_8172)"/>
<path d="M1328.74 478.236C1373.87 447.623 1392.32 414.102 1382.38 380.79C1372.44 347.479 1334.43 315.457 1271.89 287.703C1209.34 259.948 1124.29 237.36 1024.64 222.04C924.985 206.719 813.966 199.163 701.899 200.074C589.832 200.984 480.355 210.331 383.644 227.247C286.934 244.162 206.128 268.097 148.739 296.826C91.3494 325.555 59.2388 358.146 55.3917 391.57C51.5446 424.993 76.0858 458.164 126.734 488H719.5L1328.74 478.236Z" fill="url(#paint1_linear_41_8172)" fill-opacity="0.4"/>
</g>
<defs>
<filter id="filter0_f_41_8172" x="-145" y="0" width="1730" height="688" filterUnits="userSpaceOnUse" color-interpolation-filters="sRGB">
<feFlood flood-opacity="0" result="BackgroundImageFix"/>
<feBlend mode="normal" in="SourceGraphic" in2="BackgroundImageFix" result="shape"/>
<feGaussianBlur stdDeviation="100" result="effect1_foregroundBlur_41_8172"/>
</filter>
<radialGradient id="paint0_radial_41_8172" cx="0" cy="0" r="1" gradientUnits="userSpaceOnUse" gradientTransform="translate(624 322.625) rotate(70.6997) scale(290.452 941.811)">
<stop stop-color="#1A3EBE"/>
<stop offset="1" stop-color="#24214B" stop-opacity="0"/>
</radialGradient>
<linearGradient id="paint1_linear_41_8172" x1="907.5" y1="398.795" x2="418.252" y2="378.496" gradientUnits="userSpaceOnUse">
<stop stop-color="#54E0FF"/>
<stop offset="0.459917" stop-color="white" stop-opacity="0.540083"/>
<stop offset="1" stop-opacity="0"/>
</linearGradient>
</defs>
</svg>
