<svg width="113" height="11" viewBox="0 0 113 11" fill="none" xmlns="http://www.w3.org/2000/svg">
<path d="M2.528 11H0.8V0.28H9.328V1.832H2.528V5.16H9.088V6.696H2.528V11ZM11.7325 11H9.8125L14.5965 0.28H17.0285L21.8125 11H19.8605L18.6285 8.216H12.9645L11.7325 11ZM15.1085 3.4L13.6525 6.664H17.9405L16.4845 3.4L15.8605 1.88H15.7325L15.1085 3.4ZM24.3405 11H22.6125V0.28H24.3405V11ZM35.3806 11H25.6686V9.448L32.6606 1.96V1.832H25.8766V0.28H35.2046V1.832L28.0846 9.32V9.448H35.3806V11ZM37.8263 11H35.9062L40.6903 0.28H43.1223L47.9063 11H45.9543L44.7222 8.216H39.0583L37.8263 11ZM41.2023 3.4L39.7463 6.664H44.0343L42.5783 3.4L41.9543 1.88H41.8263L41.2023 3.4ZM50.4343 11H48.7063V0.28H50.5623L55.3623 6.552L56.7543 8.552H56.8823L56.8023 6.616V0.28H58.5303V11H56.6743L51.8423 4.744L50.4983 2.856H50.3703L50.4343 4.712V11Z" fill="white"/>
<path d="M2.528 11H0.8V0.28H9.328V1.832H2.528V5.16H9.088V6.696H2.528V11ZM11.7325 11H9.8125L14.5965 0.28H17.0285L21.8125 11H19.8605L18.6285 8.216H12.9645L11.7325 11ZM15.1085 3.4L13.6525 6.664H17.9405L16.4845 3.4L15.8605 1.88H15.7325L15.1085 3.4ZM24.3405 11H22.6125V0.28H24.3405V11ZM35.3806 11H25.6686V9.448L32.6606 1.96V1.832H25.8766V0.28H35.2046V1.832L28.0846 9.32V9.448H35.3806V11ZM37.8263 11H35.9062L40.6903 0.28H43.1223L47.9063 11H45.9543L44.7222 8.216H39.0583L37.8263 11ZM41.2023 3.4L39.7463 6.664H44.0343L42.5783 3.4L41.9543 1.88H41.8263L41.2023 3.4ZM50.4343 11H48.7063V0.28H50.5623L55.3623 6.552L56.7543 8.552H56.8823L56.8023 6.616V0.28H58.5303V11H56.6743L51.8423 4.744L50.4983 2.856H50.3703L50.4343 4.712V11Z" fill="url(#paint0_linear_108_6504)"/>
<path d="M64.5905 11H62.8625V0.28H65.2145L68.3025 6.488L69.2785 8.712H69.4065L70.3505 6.488L73.4065 0.28H75.7585V11H74.0305V4.424L74.0945 2.872H73.9665L73.3105 4.424L70.3505 10.36H68.2705L65.3105 4.424L64.6545 2.872H64.5265L64.5905 4.424V11ZM78.4825 11H76.5625L81.3465 0.28H83.7785L88.5625 11H86.6105L85.3785 8.216H79.7145L78.4825 11ZM81.8585 3.4L80.4025 6.664H84.6905L83.2345 3.4L82.6105 1.88H82.4825L81.8585 3.4ZM97.6985 11H89.3625V0.28H91.0905V9.448H97.6985V11ZM100.544 11H98.8156V0.28H100.544V11ZM103.872 11H102.144V0.28H103.872V4.856H107.12L110.256 0.28H112.304L108.56 5.576L112.288 11H110.24L107.152 6.52H103.872V11Z" fill="white"/>
<defs>
<linearGradient id="paint0_linear_108_6504" x1="73" y1="-10" x2="73" y2="18" gradientUnits="userSpaceOnUse">
<stop stop-color="#0067F6"/>
<stop offset="1" stop-color="#00A2B6"/>
</linearGradient>
</defs>
</svg>
