<svg width="1330" height="288" viewBox="0 0 1330 288" fill="none" xmlns="http://www.w3.org/2000/svg">
<path d="M1273.74 278.236C1318.87 247.623 1337.32 214.102 1327.38 180.79C1317.44 147.479 1279.43 115.457 1216.89 87.7026C1154.34 59.9478 1069.29 37.3604 969.639 22.0399C869.985 6.71945 758.966 -0.836797 646.899 0.0735162C534.832 0.983829 425.355 10.3312 328.644 27.2467C231.934 44.1622 151.128 68.0969 93.7389 96.8259C36.3494 125.555 4.23884 158.146 0.391726 191.57C-3.45539 224.993 21.0858 258.164 71.7344 288H664.5L1273.74 278.236Z" fill="url(#paint0_radial_117_3771)"/>
<path d="M1273.74 278.236C1318.87 247.623 1337.32 214.102 1327.38 180.79C1317.44 147.479 1279.43 115.457 1216.89 87.7026C1154.34 59.9478 1069.29 37.3604 969.639 22.0399C869.985 6.71945 758.966 -0.836797 646.899 0.0735162C534.832 0.983829 425.355 10.3312 328.644 27.2467C231.934 44.1622 151.128 68.0969 93.7389 96.8259C36.3494 125.555 4.23884 158.146 0.391726 191.57C-3.45539 224.993 21.0858 258.164 71.7344 288H664.5L1273.74 278.236Z" fill="url(#paint1_linear_117_3771)" fill-opacity="0.4"/>
<defs>
<radialGradient id="paint0_radial_117_3771" cx="0" cy="0" r="1" gradientUnits="userSpaceOnUse" gradientTransform="translate(569 122.625) rotate(70.6997) scale(290.452 941.811)">
<stop stop-color="#1A3EBE"/>
<stop offset="1" stop-color="#24214B" stop-opacity="0"/>
</radialGradient>
<linearGradient id="paint1_linear_117_3771" x1="852.5" y1="198.795" x2="363.252" y2="178.496" gradientUnits="userSpaceOnUse">
<stop stop-color="#54E0FF"/>
<stop offset="0.459917" stop-color="white" stop-opacity="0.540083"/>
<stop offset="1" stop-opacity="0"/>
</linearGradient>
</defs>
</svg>
