<svg xmlns="http://www.w3.org/2000/svg" xmlns:xlink="http://www.w3.org/1999/xlink" viewBox="0 0 835 925">
    <g>
        <defs>
            <linearGradient id="idss2968264963_1g1392017574" gradientTransform="rotate(41.79971677222423, 0.5, 0.5)">
                <stop offset="0" stop-color="rgb(43,42,57)" stop-opacity="1"></stop>
                <stop offset="1" stop-color="rgb(79,78,97)" stop-opacity="1"></stop>
            </linearGradient>
        </defs>
        <path
            d="M 33.191 683.222 C 50.915 565.013 87.441 498.81 133.242 458.507 C 178.736 418.474 233.411 403.965 288.04 389.468 L 289.173 389.168 C 344.162 374.574 399.038 359.815 444.228 318.803 C 489.424 277.785 524.9 210.541 541.188 91.046 L 540.69 90.983 C 524.411 210.41 488.968 277.527 443.889 318.437 C 398.804 359.354 344.049 374.09 289.045 388.687 L 287.867 389 L 287.867 389 C 233.269 403.488 178.493 418.024 132.909 458.136 C 86.989 498.543 50.428 564.874 32.694 683.152 Z M 44.402 689.702 C 62.126 571.494 98.652 505.29 144.453 464.987 C 189.947 424.954 244.622 410.445 299.251 395.949 L 300.384 395.648 C 355.373 381.055 410.249 366.295 455.439 325.284 C 500.635 284.266 536.111 217.022 552.399 97.527 L 551.901 97.463 C 535.622 216.891 500.179 284.007 455.1 324.918 C 410.015 365.834 355.26 380.57 300.256 395.168 L 299.078 395.48 L 299.078 395.48 C 244.48 409.969 189.704 424.504 144.12 464.616 C 98.2 505.024 61.639 571.354 43.905 689.632 Z M 155.75 471.48 C 109.949 511.783 73.423 577.987 55.699 696.195 L 55.202 696.125 C 72.936 577.847 109.497 511.517 155.417 471.109 C 201.001 430.997 255.777 416.462 310.375 401.973 L 311.553 401.661 C 366.557 387.063 421.312 372.328 466.397 331.411 C 511.476 290.5 546.919 223.384 563.198 103.957 L 563.696 104.02 C 547.408 223.515 511.932 290.759 466.736 331.777 C 421.546 372.788 366.67 387.548 311.681 402.141 L 310.548 402.442 C 255.919 416.938 201.244 431.447 155.75 471.48 Z M 66.87 702.673 C 84.595 584.465 121.121 518.261 166.921 477.958 C 212.416 437.925 267.091 423.416 321.72 408.919 L 322.853 408.619 C 377.841 394.025 432.718 379.266 477.907 338.254 C 523.104 297.237 558.579 229.992 574.868 110.498 L 574.37 110.434 C 558.091 229.861 522.647 296.978 477.569 337.889 C 432.484 378.805 377.729 393.541 322.725 408.138 L 321.547 408.451 C 266.949 422.939 212.173 437.475 166.589 477.587 C 120.669 517.994 84.108 584.325 66.373 702.603 Z M 178.156 484.443 C 132.355 524.746 95.829 590.95 78.105 709.158 L 77.608 709.088 C 95.342 590.81 131.903 524.48 177.823 484.072 C 223.407 443.96 278.183 429.425 332.781 414.936 L 332.781 414.936 L 333.96 414.624 C 388.963 400.026 443.718 385.29 488.803 344.374 C 533.882 303.463 569.325 236.347 585.604 116.919 L 586.102 116.983 C 569.814 236.478 534.338 303.722 489.142 344.74 C 443.952 385.751 389.076 400.511 334.087 415.104 L 332.954 415.405 C 278.326 429.901 223.65 444.41 178.156 484.443 Z M 89.292 715.639 C 107.016 597.43 143.542 531.227 189.343 490.924 C 234.837 450.891 289.513 436.382 344.142 421.885 L 345.274 421.585 C 400.263 406.991 455.14 392.232 500.329 351.22 C 545.526 310.202 581.001 242.958 597.29 123.463 L 596.792 123.4 C 580.512 242.827 545.069 309.944 499.991 350.854 C 454.906 391.771 400.151 406.507 345.147 421.104 L 343.969 421.417 L 343.968 421.417 C 289.371 435.905 234.595 450.441 189.011 490.553 C 143.091 530.96 106.53 597.291 88.795 715.569 Z M 200.609 497.409 C 154.808 537.712 118.282 603.916 100.558 722.124 L 100.061 722.054 C 117.795 603.776 154.357 537.446 200.276 497.038 C 245.86 456.926 300.636 442.391 355.234 427.902 L 355.234 427.902 L 356.413 427.59 C 411.416 412.992 466.171 398.256 511.257 357.34 C 556.335 316.429 591.778 249.313 608.057 129.885 L 608.555 129.949 C 592.267 249.443 556.791 316.688 511.595 357.705 C 466.405 398.717 411.529 413.476 356.54 428.07 L 355.407 428.371 L 355.407 428.371 C 300.778 442.867 246.103 457.376 200.609 497.409 Z M 111.792 728.607 C 129.516 610.399 166.042 544.195 211.843 503.892 C 257.337 463.859 312.013 449.35 366.642 434.854 L 367.774 434.553 C 422.763 419.96 477.64 405.2 522.829 364.189 C 568.026 323.171 603.501 255.927 619.79 136.432 L 619.291 136.369 C 603.012 255.796 567.569 322.913 522.491 363.823 C 477.406 404.74 422.651 419.476 367.647 434.073 L 366.469 434.386 L 366.468 434.386 C 311.871 448.874 257.095 463.41 211.511 503.522 C 165.591 543.929 129.03 610.259 111.295 728.537 Z M 223.101 510.378 C 177.3 550.681 140.774 616.884 123.05 735.093 L 122.553 735.023 C 140.288 616.745 176.849 550.414 222.768 510.007 C 268.353 469.895 323.129 455.359 377.726 440.871 L 377.727 440.871 L 378.905 440.558 C 433.909 425.961 488.664 411.225 533.749 370.308 C 578.827 329.398 614.27 262.281 630.549 142.854 L 631.047 142.918 C 614.759 262.412 579.284 329.656 534.087 370.674 C 488.897 411.686 434.021 426.445 379.032 441.039 L 377.9 441.339 L 377.899 441.339 C 323.271 455.836 268.595 470.345 223.101 510.378 Z M 134.308 741.586 C 152.032 623.378 188.558 557.174 234.359 516.871 C 279.853 476.838 334.529 462.329 389.157 447.832 L 390.29 447.532 C 445.279 432.938 500.155 418.179 545.345 377.167 C 590.541 336.15 626.017 268.905 642.305 149.411 L 641.807 149.347 C 625.528 268.775 590.085 335.891 545.007 376.802 C 499.921 417.718 445.166 432.454 390.163 447.051 L 388.984 447.364 L 388.984 447.364 C 334.386 461.852 279.61 476.388 234.026 516.5 C 188.107 556.908 151.545 623.238 133.811 741.516 Z M 245.531 523.347 C 199.73 563.649 163.204 629.853 145.48 748.062 L 144.983 747.992 C 162.717 629.714 199.278 563.383 245.198 522.976 C 290.782 482.864 345.558 468.328 400.156 453.84 L 400.156 453.84 L 401.335 453.527 C 456.338 438.93 511.093 424.194 556.178 383.277 C 601.257 342.367 636.7 275.25 652.979 155.823 L 653.477 155.886 C 637.189 275.381 601.713 342.625 556.517 383.643 C 511.327 424.654 456.451 439.414 401.462 454.007 L 400.329 454.308 C 345.701 468.805 291.025 483.314 245.531 523.347 Z M 156.706 754.54 C 174.431 636.332 210.957 570.128 256.757 529.825 C 302.252 489.792 356.927 475.283 411.556 460.787 L 412.688 460.486 C 467.677 445.892 522.554 431.133 567.743 390.121 C 612.94 349.104 648.415 281.859 664.704 162.365 L 664.206 162.301 C 647.926 281.729 612.483 348.845 567.405 389.756 C 522.32 430.672 467.565 445.408 412.561 460.006 L 411.383 460.318 C 356.785 474.806 302.009 489.342 256.425 529.454 C 210.505 569.862 173.944 636.192 156.209 754.47 Z M 267.992 536.313 C 222.191 576.616 185.665 642.82 167.941 761.028 L 167.444 760.958 C 185.178 642.68 221.739 576.35 267.659 535.942 C 313.243 495.83 368.019 481.295 422.617 466.806 L 423.795 466.494 C 478.799 451.896 533.554 437.161 578.639 396.244 C 623.718 355.333 659.161 288.217 675.44 168.79 L 675.938 168.853 C 659.65 288.348 624.174 355.592 578.978 396.61 C 533.788 437.621 478.912 452.381 423.923 466.974 L 422.79 467.275 C 368.161 481.771 313.486 496.28 267.992 536.313 Z M 179.175 767.514 C 196.899 649.305 233.425 583.102 279.226 542.799 C 324.72 502.766 379.396 488.257 434.025 473.76 L 435.157 473.46 C 490.146 458.866 545.022 444.107 590.212 403.095 C 635.409 362.077 670.884 294.833 687.172 175.338 L 686.674 175.275 C 670.395 294.702 634.952 361.819 589.874 402.729 C 544.789 443.646 490.034 458.382 435.03 472.979 L 433.852 473.292 L 433.851 473.292 C 379.254 487.78 324.478 502.316 278.893 542.428 C 232.974 582.835 196.413 649.166 178.678 767.444 Z M 290.453 549.282 C 244.652 589.585 208.126 655.789 190.402 773.997 L 189.905 773.927 C 207.639 655.649 244.2 589.319 290.12 548.911 C 335.704 508.799 390.48 494.264 445.078 479.775 L 445.078 479.775 L 446.256 479.463 C 501.26 464.865 556.015 450.129 601.1 409.213 C 646.179 368.302 681.622 301.186 697.901 181.758 L 698.399 181.822 C 682.111 301.316 646.635 368.561 601.439 409.578 C 556.249 450.59 501.373 465.35 446.384 479.943 L 445.251 480.244 C 390.622 494.74 335.947 509.249 290.453 549.282 Z M 201.652 780.48 C 219.376 662.271 255.902 596.067 301.703 555.764 C 347.197 515.732 401.872 501.223 456.501 486.726 L 457.634 486.425 C 512.623 471.832 567.499 457.072 612.689 416.061 C 657.885 375.043 693.361 307.799 709.649 188.304 L 709.151 188.241 C 692.872 307.668 657.429 374.785 612.35 415.695 C 567.265 456.612 512.51 471.348 457.506 485.945 L 456.328 486.258 L 456.328 486.258 C 401.73 500.746 346.954 515.282 301.37 555.394 C 255.45 595.801 218.889 662.132 201.155 780.409 Z M 312.961 562.255 C 267.16 602.558 230.634 668.761 212.91 786.97 L 212.412 786.9 C 230.147 668.622 266.708 602.291 312.628 561.884 C 358.212 521.772 412.988 507.236 467.586 492.748 L 467.586 492.748 L 468.764 492.435 C 523.768 477.838 578.523 463.102 623.608 422.185 C 668.687 381.275 704.13 314.158 720.409 194.731 L 720.907 194.795 C 704.618 314.289 669.143 381.533 623.947 422.551 C 578.757 463.563 523.88 478.322 468.892 492.916 L 467.759 493.216 L 467.759 493.216 C 413.13 507.713 358.455 522.222 312.961 562.255 Z M 224.144 793.451 C 241.868 675.243 278.394 609.039 324.195 568.736 C 369.689 528.703 424.364 514.194 478.993 499.698 L 478.993 499.698 L 480.126 499.397 C 535.115 484.804 589.991 470.044 635.181 429.033 C 680.377 388.015 715.853 320.771 732.141 201.276 L 731.643 201.212 C 715.364 320.64 679.921 387.756 634.842 428.667 C 589.757 469.583 535.002 484.319 479.999 498.917 L 478.82 499.229 L 478.82 499.229 C 424.222 513.718 369.446 528.253 323.862 568.365 C 277.943 608.773 241.381 675.103 223.647 793.381 Z M 335.445 575.223 C 289.644 615.526 253.118 681.73 235.394 799.939 L 234.897 799.868 C 252.631 681.59 289.193 615.26 335.112 574.853 C 380.696 534.741 435.472 520.205 490.07 505.717 L 490.07 505.717 L 491.249 505.404 C 546.252 490.807 601.007 476.071 646.092 435.154 C 691.171 394.244 726.614 327.127 742.893 207.7 L 743.391 207.763 C 727.103 327.258 691.627 394.502 646.431 435.52 C 601.241 476.531 546.365 491.291 491.376 505.884 L 490.243 506.185 C 435.615 520.682 380.939 535.191 335.445 575.223 Z M 246.55 806.418 C 264.274 688.21 300.8 622.006 346.601 581.703 C 392.095 541.67 446.771 527.161 501.399 512.665 L 501.4 512.664 L 502.532 512.364 C 557.521 497.77 612.397 483.011 657.587 441.999 C 702.784 400.982 738.259 333.737 754.547 214.243 L 754.049 214.179 C 737.77 333.607 702.327 400.723 657.249 441.634 C 612.164 482.55 557.409 497.286 502.405 511.884 L 501.227 512.196 L 501.226 512.196 L 501.226 512.196 C 446.628 526.685 391.852 541.22 346.269 581.332 C 300.349 621.74 263.788 688.07 246.053 806.348 Z M 357.843 588.182 C 312.042 628.485 275.516 694.689 257.792 812.898 L 257.295 812.827 C 275.03 694.549 311.591 628.219 357.511 587.812 C 403.095 547.7 457.871 533.164 512.468 518.676 L 512.469 518.676 L 513.647 518.363 C 568.651 503.766 623.406 489.03 668.491 448.113 C 713.569 407.203 749.012 340.086 765.291 220.659 L 765.79 220.722 C 749.501 340.217 714.026 407.461 668.829 448.479 C 623.64 489.49 568.763 504.25 513.774 518.843 L 512.642 519.144 C 458.013 533.641 403.337 548.15 357.843 588.182 Z M 269.027 819.384 C 286.751 701.175 323.277 634.972 369.078 594.669 C 414.572 554.636 469.247 540.127 523.876 525.63 L 525.009 525.33 C 579.998 510.736 634.874 495.977 680.064 454.965 C 725.26 413.947 760.736 346.703 777.024 227.209 L 776.526 227.145 C 760.247 346.572 724.804 413.689 679.725 454.599 C 634.64 495.516 579.885 510.252 524.881 524.849 L 523.703 525.162 C 469.105 539.65 414.329 554.186 368.745 594.298 C 322.825 634.705 286.264 701.036 268.53 819.314 Z M 380.336 601.161 C 334.535 641.464 298.009 707.668 280.285 825.876 L 279.787 825.806 C 297.522 707.528 334.083 641.198 380.003 600.79 C 425.587 560.678 480.363 546.142 534.961 531.654 L 534.961 531.654 L 536.139 531.342 C 591.143 516.744 645.898 502.008 690.983 461.092 C 736.062 420.181 771.505 353.065 787.784 233.637 L 788.282 233.701 C 771.993 353.195 736.518 420.44 691.322 461.457 C 646.132 502.469 591.255 517.228 536.267 531.822 L 535.134 532.122 C 480.505 546.619 425.83 561.128 380.336 601.161 Z M 291.495 832.356 C 309.22 714.147 345.746 647.943 391.546 607.64 C 437.041 567.608 491.716 553.099 546.345 538.602 L 547.477 538.301 C 602.466 523.708 657.343 508.948 702.532 467.937 C 747.729 426.919 783.204 359.675 799.493 240.18 L 798.995 240.117 C 782.716 359.544 747.272 426.661 702.194 467.571 C 657.109 508.488 602.354 523.224 547.35 537.821 L 546.172 538.134 L 546.172 538.134 C 491.574 552.622 436.798 567.158 391.214 607.27 C 345.294 647.677 308.733 714.007 290.998 832.285 Z"
            fill="url(#idss2968264963_1g1392017574)"></path>
    </g>
</svg>